<?xml version="1.0" standalone="no"?>
<!DOCTYPE svg PUBLIC "-//W3C//DTD SVG 20010904//EN"
 "http://www.w3.org/TR/2001/REC-SVG-20010904/DTD/svg10.dtd">
<svg version="1.0" xmlns="http://www.w3.org/2000/svg"
 width="399.000000pt" height="399.000000pt" viewBox="0 0 399.000000 399.000000"
 preserveAspectRatio="xMidYMid meet">
<metadata>
Created by potrace 1.11, written by Peter Selinger 2001-2013
</metadata>
<g transform="translate(0.000000,399.000000) scale(0.100000,-0.100000)"
fill="#000000" stroke="none">
<path d="M1138 3963 c-75 -25 -139 -82 -160 -141 -17 -45 -93 -84 -158 -81
-25 1 -49 5 -55 8 -13 7 -75 8 -75 1 0 -3 -13 -6 -28 -7 -60 -4 -133 -61 -162
-126 -18 -40 -19 -98 -19 -1440 l0 -1398 25 -47 c31 -59 106 -113 166 -119 49
-5 41 -5 131 3 56 5 76 2 112 -15 42 -20 79 -57 70 -71 -2 -4 16 -28 40 -54
59 -61 100 -78 195 -79 52 -1 179 9 231 18 35 6 117 16 171 20 27 3 60 7 74 9
15 3 61 8 103 12 42 3 85 8 96 10 18 4 105 14 165 18 14 1 63 -15 110 -37 47
-21 101 -46 120 -54 19 -8 62 -28 95 -43 33 -15 80 -37 105 -48 47 -20 341
-154 445 -202 33 -16 83 -38 110 -51 28 -12 63 -28 79 -36 28 -13 28 -13 22
14 -3 16 -9 39 -12 52 -3 14 -7 28 -10 33 -3 4 -7 16 -9 25 -2 10 -20 74 -40
143 -20 69 -43 148 -50 175 -7 28 -18 63 -24 78 -22 57 -18 60 104 71 28 3 66
7 85 10 19 3 57 8 84 11 85 10 151 57 194 139 l27 51 0 1370 0 1370 -22 42
c-28 52 -87 110 -130 128 -17 7 -54 16 -80 19 -26 3 -70 8 -98 11 -27 3 -64 7
-81 10 -17 2 -57 7 -90 10 -32 4 -77 9 -99 11 -22 3 -60 8 -85 10 -25 3 -61 7
-80 9 -19 2 -55 6 -80 9 -25 3 -63 8 -85 11 -22 2 -65 7 -95 10 -30 3 -68 7
-85 9 -16 3 -57 8 -90 11 -33 3 -76 8 -95 11 -19 3 -53 7 -75 9 -22 2 -60 6
-85 9 -25 4 -70 9 -100 12 -30 2 -73 7 -95 10 -43 7 -60 9 -148 18 -32 3 -79
9 -105 12 -26 3 -63 7 -82 9 -19 2 -53 6 -75 9 -160 22 -254 25 -297 9z"/>
</g>
</svg>
